<svg width="69" height="69" xmlns="http://www.w3.org/2000/svg" xml:space="preserve" version="1.1">

 <g>
  <title>Layer 1</title>
  <circle id="svg_2" fill="#54729A" r="32.5" cy="34.5" cx="34.5" class="st0"/>
  <path id="svg_3" fill="#FFFFFF" d="m34.5,2l0,0c17.9,0 32.5,14.6 32.5,32.5s-14.6,32.5 -32.5,32.5l0,0c-17.9,0 -32.5,-14.6 -32.5,-32.5s14.5,-32.5 32.5,-32.5m0,-2l0,0c-19.1,0 -34.5,15.4 -34.5,34.5s15.4,34.5 34.5,34.5c19,0 34.5,-15.4 34.5,-34.5c0,-9.1 -3.6,-17.9 -10.1,-24.4c-6.5,-6.5 -15.3,-10.1 -24.4,-10.1z" class="st1"/>
  <g id="calculatrice">
   <path id="svg_4" fill="#FFFFFF" d="m48.8,28l1.1,0c0.1,0 0.1,0.1 0.1,0.1l0,0c0,0.1 -0.1,0.1 -0.1,0.1l-1.1,0c-0.1,0 -0.1,-0.1 -0.1,-0.1l0,0c-0.1,0 0,-0.1 0.1,-0.1z" class="st1"/>
   <path id="svg_5" fill="#FFFFFF" d="m48.8,28.7l1.1,0c0.1,0 0.1,0.1 0.1,0.1l0,0c0,0.1 -0.1,0.1 -0.1,0.1l-1.1,0c-0.1,0 -0.1,-0.1 -0.1,-0.1l0,0c-0.1,0 0,-0.1 0.1,-0.1z" class="st1"/>
   <path id="svg_6" fill="#FFFFFF" d="m51.1,14.9c-3.6,0 -7.2,0 -10.9,0c-1.2,0 -1.6,0.4 -1.6,1.6c0,2.5 0,5 0,7.5s0,5 0,7.5c0,1.3 0.3,1.7 1.6,1.7c3.6,0 7.2,0 10.9,0c1.3,0 1.6,-0.3 1.6,-1.7c0,-5 0,-9.9 0,-14.9c0,-1.3 -0.3,-1.7 -1.6,-1.7zm-8.2,16.8c0,0.2 -0.1,0.3 -0.3,0.3l-2.3,0c-0.2,0 -0.3,-0.1 -0.3,-0.3l0,0l0,-2.3c0,-0.2 0.1,-0.3 0.3,-0.3c0,0 0,0 0,0l2.3,0c0.2,0 0.3,0.1 0.3,0.3l0,0l0,2.3zm0,-3.6c0,0.2 -0.1,0.3 -0.3,0.3l0,0l-2.3,0c-0.2,0 -0.3,-0.1 -0.3,-0.3c0,0 0,0 0,0l0,-2.3c0,-0.2 0.1,-0.3 0.3,-0.3l0,0l2.3,0c0.2,0 0.3,0.1 0.3,0.3l0,2.3zm0,-4.1c0,0.2 -0.1,0.3 -0.3,0.3l0,0l-2.3,0c-0.2,0 -0.3,-0.1 -0.3,-0.3c0,0 0,0 0,0l0,-0.8c0,-0.2 0.1,-0.3 0.3,-0.3c0,0 0,0 0,0l2.3,0c0.2,0 0.3,0.1 0.3,0.3l0,0l0,0.8zm3.8,7.7c0,0.2 -0.1,0.3 -0.3,0.3l-2.3,0c-0.2,0 -0.3,-0.1 -0.3,-0.3l0,0l0,-2.3c0,-0.2 0.1,-0.3 0.3,-0.3c0,0 0,0 0,0l2.3,0c0.2,0 0.3,0.1 0.3,0.3l0,0l0,2.3zm0,-3.6c0,0.2 -0.1,0.3 -0.3,0.3l0,0l-2.3,0c-0.2,0 -0.3,-0.1 -0.3,-0.3c0,0 0,0 0,0l0,-2.3c0,-0.2 0.1,-0.3 0.3,-0.3l0,0l2.3,0c0.2,0 0.3,0.1 0.3,0.3l0,2.3zm0,-4.1c0,0.2 -0.1,0.3 -0.3,0.3l0,0l-2.3,0c-0.2,0 -0.3,-0.1 -0.3,-0.3c0,0 0,0 0,0l0,-0.8c0,-0.2 0.1,-0.3 0.3,-0.3c0,0 0,0 0,0l2.3,0c0.2,0 0.3,0.1 0.3,0.3l0,0l0,0.8zm4.5,7.5c0,0.3 -0.2,0.5 -0.5,0.5l-2.5,0c-0.3,0 -0.5,-0.2 -0.5,-0.5l0,-5.9c0,-0.3 0.2,-0.5 0.5,-0.5l2.5,0c0.3,0 0.5,0.2 0.5,0.5l0,5.9zm-3.6,-7.5l0,-0.8c0,-0.2 0.1,-0.3 0.3,-0.3c0,0 0,0 0,0l2.3,0c0.2,0 0.3,0.1 0.3,0.3l0,0l0,0.8c0,0.2 -0.1,0.3 -0.3,0.3l0,0l-2.3,0c-0.2,0 -0.3,-0.1 -0.3,-0.3c0,0 0,0 0,0zm4.1,-2.5c0,0.3 -0.3,0.6 -0.6,0.6l-11,0c-0.3,0 -0.6,-0.3 -0.6,-0.6l0,-3.5c0,-0.3 0.3,-0.6 0.6,-0.6l10.9,0c0.3,0 0.6,0.2 0.6,0.6c0,0 0,0 0,0l0,3.5l0.1,0z" class="st1"/>
   <path id="svg_7" fill="#FFFFFF" d="m46.5,19.3l0,0l-0.4,0.2l-0.1,-0.3l0.6,-0.3l0.4,0l0,2.3l-0.4,0l0,-1.9l-0.1,0z" class="st1"/>
   <path id="svg_8" fill="#FFFFFF" d="m47.7,21.3l0,-0.3l0.3,-0.2c0.6,-0.5 0.8,-0.8 0.8,-1.1c0,-0.2 -0.1,-0.4 -0.3,-0.4c0,0 -0.1,0 -0.1,0c-0.2,0 -0.4,0.1 -0.5,0.2l-0.2,-0.3c0.2,-0.2 0.5,-0.2 0.7,-0.2c0.4,0 0.7,0.2 0.8,0.6c0,0 0,0.1 0,0.1c-0.1,0.5 -0.3,0.9 -0.7,1.1l-0.2,0.2l1,0l0,0.4l-1.6,-0.1z" class="st1"/>
   <path id="svg_9" fill="#FFFFFF" d="m49.7,20.8c0.2,0.1 0.3,0.1 0.5,0.1c0.3,0 0.5,-0.2 0.5,-0.4s-0.2,-0.4 -0.5,-0.4l-0.2,0l0,-0.3l0.2,0c0.2,0 0.5,-0.1 0.5,-0.3s-0.1,-0.3 -0.4,-0.3c-0.2,0 -0.3,0.1 -0.5,0.1l-0.1,-0.2c0.2,-0.1 0.4,-0.2 0.7,-0.2c0.5,0 0.7,0.3 0.7,0.6c0,0.2 -0.1,0.4 -0.4,0.5l0,0c0.3,0 0.5,0.3 0.5,0.6c0,0.4 -0.3,0.7 -0.9,0.7c-0.2,0 -0.5,0 -0.7,-0.2l0.1,-0.3z" class="st1"/>
  </g>
  <path fill="#FFFFFF" d="m28.5,31l7,24.3l-1.4,-12.8l-3.5,-11.5l0.8,0l0,0.3c0,0.1 0.1,0.2 0.2,0.2c0,0 0,0 0,0c0.1,0 0.2,-0.1 0.2,-0.2l0,-0.3l0.2,0c0.1,0 0.2,-0.1 0.2,-0.2c0,-0.1 -0.1,-0.2 -0.2,-0.2c0,0 0,0 0,0l-0.2,0l0,-0.3c0,-0.1 -0.1,-0.2 -0.2,-0.2c-0.1,0 -0.2,0.1 -0.2,0.2c0,0 0,0 0,0l0,0.3l-0.9,0l-2.1,-6.8c1.6,-1 2,-3.2 0.9,-4.7c-0.5,-0.7 -1.2,-1.2 -2.1,-1.4l0,-3.3c0,-0.4 -0.3,-0.7 -0.7,-0.7c-0.4,0 -0.7,0.3 -0.7,0.7l0,3.3c-1.8,0.4 -3,2.2 -2.6,4.1c0.2,0.8 0.7,1.6 1.4,2.1l-5.7,18.7l-1.5,12.8l7.2,-24.4l1.6,0l0,0.9l0.8,0l0,-0.9l1.5,0zm-4.8,-10.1c0,-1.2 0.8,-2.3 2,-2.7l0,0.2c0,0.4 0.3,0.7 0.7,0.7c0.4,0 0.7,-0.3 0.7,-0.7l0,-0.2c1.5,0.4 2.4,1.9 2,3.4c-0.2,0.6 -0.5,1.2 -1,1.5l-1,-3.2l-0.3,2.2l-0.8,0.1l-0.3,-2.3l-1,3.2c-0.6,-0.5 -1,-1.3 -1,-2.2zm1,9.7l1.4,-5l0.8,0l1.4,5l-1.4,0l0,-0.9l-0.8,0l0,0.9l-1.4,0z" class="st1" id="compas"/>
 </g>
</svg>