<svg width="69" height="69" xmlns="http://www.w3.org/2000/svg" xml:space="preserve" version="1.1">

 <g>
  <title>Layer 1</title>
  <circle id="svg_2" fill="#FCDA15" r="32.5" cy="34.5" cx="34.5" class="st0"/>
  <path id="svg_3" fill="#FFFFFF" d="m34.5,2l0,0c17.9,0 32.5,14.6 32.5,32.5s-14.6,32.5 -32.5,32.5l0,0c-17.9,0 -32.5,-14.6 -32.5,-32.5s14.5,-32.5 32.5,-32.5m0,-2l0,0c-19.1,0 -34.5,15.4 -34.5,34.5s15.4,34.5 34.5,34.5s34.5,-15.4 34.5,-34.5c0,-9.1 -3.6,-17.9 -10.1,-24.4c-6.5,-6.4 -15.3,-10.1 -24.4,-10.1z" class="st1"/>
  <g id="icone">
   <path id="svg_4" fill="#FFFFFF" d="m30.2,57.8l7.3,0c0.7,0 1.2,0.5 1.2,1.2l0,0c0,0.7 -0.5,1.2 -1.2,1.2l-7.3,0c-0.7,0 -1.2,-0.5 -1.2,-1.2l0,0c0,-0.7 0.5,-1.2 1.2,-1.2z" class="st1"/>
   <path id="svg_5" fill="#FFFFFF" d="m27.9,51.3l12,0c0.7,0 1.2,0.5 1.2,1.2l0,0c0,0.7 -0.5,1.2 -1.2,1.2l-12,0c-0.7,0 -1.2,-0.5 -1.2,-1.2l0,0c-0.1,-0.7 0.5,-1.2 1.2,-1.2z" class="st1"/>
   <path id="svg_6" fill="#FFFFFF" d="m28.6,54.7l10.6,0c0.6,0 1,0.5 1,1l0,0c0,0.6 -0.5,1 -1,1l-10.6,0c-0.6,0 -1,-0.5 -1,-1l0,0c0,-0.5 0.4,-1 1,-1z" class="st1"/>
   <path id="svg_7" fill="#FFFFFF" d="m40.7,50.5l-13.6,0l0,-3.4c0,-1 -0.3,-2 -0.8,-2.9l0,0c0,0 -1.8,-2.2 -2.2,-2.8c-3.9,-5.3 -3.5,-13 0.9,-17.6c2.3,-2.4 5.5,-3.8 8.9,-3.8l0,0c3.4,0 6.6,1.3 8.9,3.8c4.4,4.6 4.7,12.6 0.8,17.9c-0.5,0.6 -2,2.5 -2.1,2.6c-0.5,0.8 -0.8,1.7 -0.8,2.7l0,3.5zm-12.6,-1l11.6,0l0,-2.5c0,-1.2 0.3,-2.3 0.9,-3.3c0.1,-0.1 1.7,-2 2.1,-2.6c3.6,-5 3.3,-12.4 -0.7,-16.6c-2.1,-2.3 -5.1,-3.6 -8.2,-3.6l0,0c-3.1,0 -6,1.2 -8.1,3.5l0,0c-4.1,4.6 -4.4,11.4 -0.8,16.3c0.4,0.6 2.2,2.8 2.2,2.8c0.7,1 1,2.3 1,3.5l0,2.5z" class="st1"/>
   <path id="svg_8" fill="#FFFFFF" d="m36.2,50.2l0,0c-0.3,-0.1 -0.5,-0.3 -0.5,-0.6l1.8,-10.5l-0.5,0l-0.6,0.7c-0.2,0.2 -0.5,0.3 -0.7,0.1l-0.8,-0.6l-0.7,0.7c-0.2,0.2 -0.5,0.2 -0.7,0l-0.6,-0.6l-0.6,0.6c-0.2,0.2 -0.5,0.2 -0.7,0l-1,-0.8l-0.4,0l1.8,10.4c0,0.3 -0.1,0.5 -0.4,0.6c-0.3,0 -0.5,-0.1 -0.6,-0.4c0,0 0,0 0,0l-1.9,-11c0,-0.3 0.2,-0.5 0.5,-0.6c0,0 0,0 0,0l1.2,0c0.1,0 0.2,0 0.3,0.1l0.8,0.6l0.7,-0.6c0.2,-0.2 0.5,-0.2 0.7,0l0.6,0.6l0.7,-0.6c0.2,-0.1 0.4,-0.1 0.6,0l0.8,0.6l0.4,-0.5c0.1,-0.1 0.2,-0.2 0.4,-0.2l1.4,0c0.1,0 0.3,0.1 0.4,0.2c0.1,0.1 0.1,0.3 0.1,0.4l-1.9,11c-0.1,0.2 -0.3,0.3 -0.6,0.4z" class="st1"/>
   <path id="svg_9" fill="#FFFFFF" d="m42.5,33.2c-0.3,0 -0.5,-0.2 -0.5,-0.4c-0.2,-2.1 -1.2,-4.1 -2.6,-5.6c-1.5,-1.6 -3.5,-2.6 -5.7,-2.9c-0.3,0 -0.5,-0.3 -0.4,-0.6c0,-0.3 0.3,-0.5 0.5,-0.4c0,0 0,0 0,0c2.4,0.3 4.6,1.4 6.2,3.2c1.6,1.7 2.6,3.9 2.9,6.2c0.1,0.1 -0.1,0.4 -0.4,0.5c0.1,-0.1 0.1,-0.1 0,0l0,0z" class="st1"/>
   <path id="svg_10" fill="#FFFFFF" d="m42.1,18.9l0,0c-0.4,-0.2 -0.6,-0.7 -0.4,-1.1l3.2,-6.4c0.2,-0.4 0.7,-0.6 1.1,-0.4s0.6,0.7 0.4,1.1c0,0 0,0 0,0.1l-3.2,6.4c-0.2,0.3 -0.7,0.5 -1.1,0.3" class="st1"/>
   <path id="svg_11" fill="#FFFFFF" d="m33.9,17l0,0c-0.4,0 -0.8,-0.4 -0.8,-0.8l0,-7.1c0,-0.4 0.4,-0.8 0.8,-0.8c0,0 0,0 0,0c0.4,0 0.8,0.4 0.8,0.8l0,7.1c0,0.4 -0.3,0.8 -0.8,0.8" class="st1"/>
   <path id="svg_12" fill="#FFFFFF" d="m25.8,18.9l0,0c-0.4,0.2 -0.9,0 -1.1,-0.4l-3.2,-6.4c-0.2,-0.4 0,-0.9 0.5,-1c0.4,-0.1 0.8,0 1,0.3l3.1,6.4c0.2,0.4 0,0.9 -0.3,1.1" class="st1"/>
   <path id="svg_13" fill="#FFFFFF" d="m47.9,41.2l0,0c0.2,-0.4 0.7,-0.5 1.1,-0.3l6.2,3.6c0.4,0.2 0.5,0.7 0.3,1.1l0,0c-0.2,0.4 -0.7,0.5 -1.1,0.3l-6.2,-3.6c-0.4,-0.2 -0.5,-0.7 -0.3,-1.1z" class="st1"/>
   <path id="svg_14" fill="#FFFFFF" d="m50.9,32.3l7.1,0c0.4,0 0.8,0.4 0.8,0.8l0,0c0,0.4 -0.4,0.8 -0.8,0.8l-7.1,0c-0.4,0 -0.8,-0.4 -0.8,-0.8l0,0c0,-0.5 0.3,-0.8 0.8,-0.8z" class="st1"/>
   <path id="svg_15" fill="#FFFFFF" d="m48.2,23.9l6.2,-3.6c0.4,-0.2 0.9,-0.1 1.1,0.3l0,0c0.2,0.4 0.1,0.9 -0.3,1.1l-6.2,3.6c-0.4,0.2 -0.9,0.1 -1.1,-0.3l0,0c-0.2,-0.4 -0.1,-0.9 0.3,-1.1z" class="st1"/>
   <path id="svg_16" fill="#FFFFFF" d="m12.5,44.5l6.2,-3.6c0.4,-0.2 0.9,-0.1 1.1,0.3l0,0c0.2,0.4 0.1,0.9 -0.3,1.1l-6.2,3.6c-0.4,0.2 -0.9,0.1 -1.1,-0.3l0,0c-0.2,-0.4 -0.1,-0.9 0.3,-1.1z" class="st1"/>
   <path id="svg_17" fill="#FFFFFF" d="m9.6,32.3l7.1,0c0.4,0 0.8,0.4 0.8,0.8l0,0c0,0.4 -0.4,0.8 -0.8,0.8l-7.1,0c-0.4,0 -0.8,-0.4 -0.8,-0.8l0,0c0,-0.5 0.4,-0.8 0.8,-0.8z" class="st1"/>
   <path id="svg_18" fill="#FFFFFF" d="m12.2,20.6l0,0c0.2,-0.4 0.7,-0.5 1.1,-0.3l6.2,3.6c0.4,0.2 0.5,0.7 0.3,1.1l0,0c-0.2,0.4 -0.7,0.5 -1.1,0.3l-6.2,-3.6c-0.4,-0.2 -0.5,-0.7 -0.3,-1.1z" class="st1"/>
  </g>
 </g>
</svg>